<?xml version="1.0" encoding="UTF-8" standalone="no"?>
<svg
   xmlns:dc="http://purl.org/dc/elements/1.1/"
   xmlns:cc="http://creativecommons.org/ns#"
   xmlns:rdf="http://www.w3.org/1999/02/22-rdf-syntax-ns#"
   xmlns:svg="http://www.w3.org/2000/svg"
   xmlns="http://www.w3.org/2000/svg"
   xmlns:sodipodi="http://sodipodi.sourceforge.net/DTD/sodipodi-0.dtd"
   xmlns:inkscape="http://www.inkscape.org/namespaces/inkscape"
   version="1.0"
   width="108.2mm"
   height="38.099998mm"
   id="svg12"
   sodipodi:docname="logo.ligth.emf">
  <metadata
     id="metadata16">
    <rdf:RDF>
      <cc:Work
         rdf:about="">
        <dc:format>image/svg+xml</dc:format>
        <dc:type
           rdf:resource="http://purl.org/dc/dcmitype/StillImage" />
      </cc:Work>
    </rdf:RDF>
  </metadata>
  <sodipodi:namedview
     pagecolor="#ffffff"
     bordercolor="#666666"
     borderopacity="1"
     objecttolerance="10"
     gridtolerance="10"
     guidetolerance="10"
     inkscape:pageopacity="0"
     inkscape:pageshadow="2"
     inkscape:window-width="640"
     inkscape:window-height="480"
     id="namedview14" />
  <defs
     id="defs6">
    <clipPath
       clipPathUnits="userSpaceOnUse"
       id="clipEmfPath1">
      <path
         d="  M 0,0   L 0,0   L 0,145.74211   L 410.6689,145.74211   L 410.6689,0 "
         id="path2" />
    </clipPath>
    <pattern
       id="EMFhbasepattern"
       patternUnits="userSpaceOnUse"
       width="6"
       height="6"
       x="0"
       y="0" />
  </defs>
  <path
     style="fill:#00aaff;fill-rule:nonzero;fill-opacity:1;stroke:none;"
     clip-path="url(#clipEmfPath1)"
     d="  M 28.204732,-0.50014452   L 28.204732,-0.50014452   L 21.103541,18.805434   L 118.91995,18.805434   L 126.02114,-0.50014452   L 28.204732,-0.50014452   z  M 17.602953,28.508238   L 17.602953,28.508238   L 10.501762,47.913845   L 108.31817,47.913845   L 115.41936,28.508238   L 17.602953,28.508238   z  M 7.0011746,57.616649   L 7.0011746,57.616649   L 0,77.022256   L 97.816411,77.022256   L 104.81759,57.616649   L 7.0011746,57.616649   z "
     id="path8" />
  <path
     style="fill:#ffffff;fill-rule:nonzero;fill-opacity:1;stroke:none;"
     clip-path="url(#clipEmfPath1)"
     d="  M 206.13458,82.923962   L 206.13458,82.923962   L 206.13458,83.324077   C 210.53532,84.92454 214.73603,87.725349 216.9364,89.525869   C 223.83755,95.127488 226.83806,102.62966 226.83806,112.23243   C 226.83806,128.13703 218.33663,139.64035 204.4343,143.24139   C 200.23359,144.44174 195.83286,144.94188 187.53146,144.94188   L 145.52442,144.94188   L 145.52442,28.508238   L 182.73066,28.508238   C 190.43195,28.508238 195.63282,28.908353 200.23359,30.1087   C 213.73586,33.709741 222.63735,43.012429 222.63735,57.716678   C 222.63735,65.518932 219.73687,72.220869 215.13609,76.622141   C 213.13576,78.622719 210.33529,81.023412 206.13458,82.923962   z  M 168.82833,95.127488   L 168.82833,95.127488   L 168.82833,125.73633   L 184.93103,125.73633   C 189.73183,125.73633 194.23259,125.33622 197.43312,122.33535   C 200.63366,119.33448 202.0339,115.53338 202.0339,110.43191   C 202.0339,106.63081 201.03373,103.02977 199.03339,100.42902   C 195.63282,96.127777 191.43212,95.127488 184.13089,95.127488   L 168.82833,95.127488   z  M 168.62829,75.021678   L 168.62829,75.021678   L 181.73049,75.021678   C 185.73116,75.021678 187.7315,75.021678 189.73183,74.421505   C 195.23276,72.821042 198.63333,68.019655 198.63333,61.317718   C 198.63333,53.515464 195.03272,50.014452 189.73183,48.41399   C 187.53146,47.813816 185.33109,47.613758 180.93036,47.613758   L 168.62829,47.613758   L 168.62829,75.021678   z  M 261.84393,144.94188   L 261.84393,144.94188   L 261.84393,48.013874   L 228.23829,48.013874   L 228.23829,28.508238   L 321.65397,28.508238   L 314.95284,48.013874   L 285.24786,48.013874   L 285.24786,144.94188   L 261.84393,144.94188   z  M 328.85517,144.94188   L 328.85517,144.94188   L 328.85517,28.508238   L 404.56788,28.508238   L 397.96677,48.013874   L 352.05907,48.013874   L 352.05907,73.821331   L 370.76221,73.821331   C 385.86474,73.821331 393.66605,77.422372 399.16697,82.12373   C 403.36768,85.724771 410.56888,93.727083 410.56888,109.63168   C 410.56888,125.33622 403.16764,134.03873 396.9666,138.44   C 389.66538,143.44145 382.0641,144.94188 366.5615,144.94188   L 328.85517,144.94188   z  M 352.05907,125.33622   L 352.05907,125.33622   L 369.562,125.33622   C 376.16311,125.33622 380.2638,123.73575 383.06427,120.13471   C 384.4645,118.33419 386.46484,115.13327 386.46484,109.03151   C 386.46484,103.02977 384.4645,98.828557 380.46383,95.727661   C 377.96341,93.927141 374.76288,92.926852 369.36197,92.926852   L 352.05907,92.926852   L 352.05907,125.33622   z "
     id="path10" />
</svg>
