<?xml version="1.0" encoding="UTF-8"?>
<svg data-name="Ebene 1" viewBox="0 0 800 800" xmlns="http://www.w3.org/2000/svg">
 <defs>
  <clipPath id="a">
   <circle cx="400" cy="400" r="400" fill="none"/>
  </clipPath>
  <linearGradient id="b" x1="466.86" x2="172.49" y1="338.14" y2="632.51" gradientUnits="userSpaceOnUse">
   <stop offset="0"/>
   <stop stop-opacity="0" offset="1"/>
  </linearGradient>
 </defs>
 <circle cx="400" cy="400" r="400" fill="#1c8adb"/>
 <g clip-path="url(#a)">
  <path d="M283.3 789.3L584.665 487.93l-23.194-9.747 23.194-23.195-23.194-9.747 23.194-23.194-23.194-9.748 23.194-23.195-23.194-9.746 23.194-23.194-23.194-9.747 23.194-23.195-26.55-11.157-31.546 31.547V301.92l-23.49-23.49h-41.695l31.547-31.547-11.157-26.55-23.194 23.195-9.746-23.194-23.195 23.194-9.748-23.194-23.194 23.194-9.747-23.194-23.193 23.194-9.747-23.194-23.195 23.194-9.747-23.194L13.2 524.2C58.236 649.39 145.008 740.42 283.3 789.3z" fill="url(#b)" opacity=".42"/>
  <path d="M299.78 269.58l-25.2 25.2v210.44l25.2 25.2h210.44l25.2-25.2V294.78l-25.2-25.2zm226.79 228.5l-23.49 23.49H306.92l-23.49-23.49V301.92l23.49-23.49h196.16l23.49 23.49z" fill="#fff"/>
  <path d="m312.51 285.36l-22.15 22.15v184.99l22.15 22.15h184.99l22.15-22.15v-184.99l-22.15-22.15h-184.99m-87.172 26.713h26.55v11.157h-26.55zm0 32.942h26.55v11.157h-26.55zm0 32.94h26.55v11.158h-26.55zm0 32.942h26.55v11.157h-26.55zm0 32.942h26.55v11.157h-26.55zm0 32.941h26.55v11.157h-26.55zm332.78-164.71h26.55v11.157h-26.55zm0 32.942h26.55v11.157h-26.55zm0 32.94h26.55v11.158h-26.55zm0 32.942h26.55v11.157h-26.55zm0 32.942h26.55v11.157h-26.55zm0 32.941h26.55v11.157h-26.55zm-241.05 76.342h11.157v26.55h-11.157zm32.942 0h11.157v26.55h-11.157zm32.94 0h11.158v26.55h-11.158zm32.942 0h11.157v26.55h-11.159zm32.942 0h11.157v26.55h-11.156zm32.941 0h11.157v26.55h-11.157zm-164.71-332.78h11.157v26.55h-11.157zm32.942 0h11.157v26.55h-11.157zm32.94 0h11.158v26.55h-11.158zm32.942 0h11.157v26.55h-11.159zm32.942 0h11.157v26.55h-11.156zm32.941 0h11.157v26.55h-11.157z" fill="#fff"/>
 </g>
</svg>
